<svg width="37" height="19" viewBox="0 0 37 19" fill="none" xmlns="http://www.w3.org/2000/svg">
<path d="M0.619563 8.976C0.619563 6.208 1.20356 4.032 2.37156 2.448C3.55556 0.863999 5.37156 0.0719991 7.81956 0.0719991C10.2516 0.0719991 12.0596 0.871999 13.2436 2.472C14.4276 4.056 15.0196 6.224 15.0196 8.976C15.0196 11.744 14.4276 13.928 13.2436 15.528C12.0596 17.112 10.2516 17.904 7.81956 17.904C5.37156 17.904 3.55556 17.112 2.37156 15.528C1.20356 13.928 0.619563 11.744 0.619563 8.976ZM9.76356 8.976C9.76356 7.696 9.63556 6.736 9.37956 6.096C9.12356 5.44 8.60356 5.112 7.81956 5.112C7.01956 5.112 6.49156 5.44 6.23556 6.096C5.97956 6.736 5.85156 7.696 5.85156 8.976C5.85156 10.272 5.97956 11.248 6.23556 11.904C6.49156 12.544 7.01956 12.864 7.81956 12.864C8.60356 12.864 9.12356 12.544 9.37956 11.904C9.63556 11.248 9.76356 10.272 9.76356 8.976ZM16.4142 13.752C18.5582 12.152 20.2542 10.704 21.5022 9.408C22.7502 8.096 23.3742 6.872 23.3742 5.736C23.3742 5.352 23.2862 5.056 23.1102 4.848C22.9502 4.64 22.7342 4.536 22.4622 4.536C22.1422 4.536 21.8862 4.704 21.6942 5.04C21.5182 5.36 21.4542 5.856 21.5022 6.528H16.3422C16.3902 5.04 16.7102 3.816 17.3022 2.856C17.9102 1.896 18.6942 1.192 19.6542 0.743999C20.6142 0.295999 21.6702 0.0719991 22.8222 0.0719991C24.8702 0.0719991 26.3662 0.567999 27.3102 1.56C28.2702 2.536 28.7502 3.792 28.7502 5.328C28.7502 6.944 28.2302 8.464 27.1902 9.888C26.1662 11.296 24.8782 12.488 23.3262 13.464H28.8222V17.76H16.4142V13.752ZM33.1759 18.192C32.2479 18.192 31.5039 17.944 30.9439 17.448C30.3839 16.952 30.1039 16.328 30.1039 15.576C30.1039 14.808 30.3839 14.176 30.9439 13.68C31.5039 13.168 32.2479 12.912 33.1759 12.912C34.0879 12.912 34.8239 13.168 35.3839 13.68C35.9439 14.176 36.2239 14.808 36.2239 15.576C36.2239 16.328 35.9439 16.952 35.3839 17.448C34.8239 17.944 34.0879 18.192 33.1759 18.192Z" fill="#9099A3"/>
</svg>
