<svg width="38" height="19" viewBox="0 0 38 19" fill="none" xmlns="http://www.w3.org/2000/svg">
<path d="M0.447688 8.976C0.447688 6.208 1.03169 4.032 2.19969 2.448C3.38369 0.863999 5.19969 0.0719991 7.64769 0.0719991C10.0797 0.0719991 11.8877 0.871999 13.0717 2.472C14.2557 4.056 14.8477 6.224 14.8477 8.976C14.8477 11.744 14.2557 13.928 13.0717 15.528C11.8877 17.112 10.0797 17.904 7.64769 17.904C5.19969 17.904 3.38369 17.112 2.19969 15.528C1.03169 13.928 0.447688 11.744 0.447688 8.976ZM9.59169 8.976C9.59169 7.696 9.46369 6.736 9.20769 6.096C8.95169 5.44 8.43169 5.112 7.64769 5.112C6.84769 5.112 6.31969 5.44 6.06369 6.096C5.80769 6.736 5.67969 7.696 5.67969 8.976C5.67969 10.272 5.80769 11.248 6.06369 11.904C6.31969 12.544 6.84769 12.864 7.64769 12.864C8.43169 12.864 8.95169 12.544 9.20769 11.904C9.46369 11.248 9.59169 10.272 9.59169 8.976ZM16.6503 5.952C16.6983 4.048 17.2503 2.592 18.3063 1.584C19.3783 0.575999 20.8903 0.0719991 22.8423 0.0719991C24.1063 0.0719991 25.1863 0.287999 26.0823 0.719999C26.9783 1.152 27.6503 1.736 28.0983 2.472C28.5623 3.208 28.7943 4.04 28.7943 4.968C28.7943 6.088 28.5303 6.968 28.0023 7.608C27.4743 8.232 26.8823 8.656 26.2263 8.88V8.976C28.1463 9.696 29.1063 11.032 29.1063 12.984C29.1063 14.008 28.8663 14.912 28.3863 15.696C27.9063 16.48 27.2183 17.088 26.3223 17.52C25.4423 17.952 24.3943 18.168 23.1783 18.168C21.0983 18.168 19.4663 17.672 18.2823 16.68C17.0983 15.688 16.4903 14.136 16.4583 12.024H21.6423C21.6103 12.6 21.6903 13.04 21.8823 13.344C22.0903 13.632 22.4423 13.776 22.9383 13.776C23.2263 13.776 23.4663 13.672 23.6583 13.464C23.8503 13.24 23.9463 12.952 23.9463 12.6C23.9463 12.152 23.7943 11.816 23.4903 11.592C23.2023 11.352 22.7063 11.232 22.0023 11.232H21.1143V6.936H21.9783C23.0663 7 23.6103 6.568 23.6103 5.64C23.6103 5.24 23.5223 4.944 23.3463 4.752C23.1863 4.56 22.9783 4.464 22.7223 4.464C22.1303 4.464 21.8343 4.96 21.8343 5.952H16.6503ZM34.1759 18.192C33.2479 18.192 32.5039 17.944 31.9439 17.448C31.3839 16.952 31.1039 16.328 31.1039 15.576C31.1039 14.808 31.3839 14.176 31.9439 13.68C32.5039 13.168 33.2479 12.912 34.1759 12.912C35.0879 12.912 35.8239 13.168 36.3839 13.68C36.9439 14.176 37.2239 14.808 37.2239 15.576C37.2239 16.328 36.9439 16.952 36.3839 17.448C35.8239 17.944 35.0879 18.192 34.1759 18.192Z" fill="#9099A3"/>
</svg>
