<svg width="40" height="19" viewBox="0 0 40 19" fill="none" xmlns="http://www.w3.org/2000/svg">
<path d="M0.314875 8.976C0.314875 6.208 0.898875 4.032 2.06688 2.448C3.25088 0.863999 5.06688 0.0719991 7.51488 0.0719991C9.94688 0.0719991 11.7549 0.871999 12.9389 2.472C14.1229 4.056 14.7149 6.224 14.7149 8.976C14.7149 11.744 14.1229 13.928 12.9389 15.528C11.7549 17.112 9.94688 17.904 7.51488 17.904C5.06688 17.904 3.25088 17.112 2.06688 15.528C0.898875 13.928 0.314875 11.744 0.314875 8.976ZM9.45888 8.976C9.45888 7.696 9.33088 6.736 9.07488 6.096C8.81888 5.44 8.29888 5.112 7.51488 5.112C6.71488 5.112 6.18688 5.44 5.93088 6.096C5.67488 6.736 5.54688 7.696 5.54688 8.976C5.54688 10.272 5.67488 11.248 5.93088 11.904C6.18688 12.544 6.71488 12.864 7.51488 12.864C8.29888 12.864 8.81888 12.544 9.07488 11.904C9.33088 11.248 9.45888 10.272 9.45888 8.976ZM16.6855 15.36V10.92L23.8375 0.719999H29.5735V10.752H31.3015V15.36H29.5735V18H24.1975V15.36H16.6855ZM24.6295 6.792L22.0375 10.752H24.6295V6.792ZM36.1759 18.192C35.2479 18.192 34.5039 17.944 33.9439 17.448C33.3839 16.952 33.1039 16.328 33.1039 15.576C33.1039 14.808 33.3839 14.176 33.9439 13.68C34.5039 13.168 35.2479 12.912 36.1759 12.912C37.0879 12.912 37.8239 13.168 38.3839 13.68C38.9439 14.176 39.2239 14.808 39.2239 15.576C39.2239 16.328 38.9439 16.952 38.3839 17.448C37.8239 17.944 37.0879 18.192 36.1759 18.192Z" fill="#9099A3"/>
</svg>
