<svg width="39" height="19" viewBox="0 0 39 19" fill="none" xmlns="http://www.w3.org/2000/svg">
<path d="M0.369563 8.976C0.369563 6.208 0.953563 4.032 2.12156 2.448C3.30556 0.863999 5.12156 0.0719991 7.56956 0.0719991C10.0016 0.0719991 11.8096 0.871999 12.9936 2.472C14.1776 4.056 14.7696 6.224 14.7696 8.976C14.7696 11.744 14.1776 13.928 12.9936 15.528C11.8096 17.112 10.0016 17.904 7.56956 17.904C5.12156 17.904 3.30556 17.112 2.12156 15.528C0.953563 13.928 0.369563 11.744 0.369563 8.976ZM9.51356 8.976C9.51356 7.696 9.38556 6.736 9.12956 6.096C8.87356 5.44 8.35356 5.112 7.56956 5.112C6.76956 5.112 6.24156 5.44 5.98556 6.096C5.72956 6.736 5.60156 7.696 5.60156 8.976C5.60156 10.272 5.72956 11.248 5.98556 11.904C6.24156 12.544 6.76956 12.864 7.56956 12.864C8.35356 12.864 8.87356 12.544 9.12956 11.904C9.38556 11.248 9.51356 10.272 9.51356 8.976ZM29.5082 5.136H22.5482V7.152C22.8522 6.88 23.2442 6.664 23.7242 6.504C24.2202 6.344 24.7722 6.264 25.3802 6.264C26.4682 6.264 27.3882 6.52 28.1402 7.032C28.8922 7.544 29.4522 8.232 29.8202 9.096C30.1882 9.944 30.3722 10.888 30.3722 11.928C30.3722 13.848 29.8282 15.344 28.7402 16.416C27.6682 17.472 26.1882 18 24.3002 18C22.9242 18 21.7322 17.76 20.7242 17.28C19.7322 16.8 18.9722 16.136 18.4442 15.288C17.9322 14.44 17.6922 13.472 17.7242 12.384H22.9082C22.9082 12.64 22.9962 12.88 23.1722 13.104C23.3482 13.328 23.6362 13.44 24.0362 13.44C24.4362 13.44 24.7322 13.296 24.9242 13.008C25.1162 12.72 25.2122 12.328 25.2122 11.832C25.2122 11.368 25.1002 11.016 24.8762 10.776C24.6682 10.536 24.3642 10.416 23.9642 10.416C23.6282 10.416 23.3722 10.496 23.1962 10.656C23.0202 10.816 22.9322 11 22.9322 11.208H17.7482V0.456H29.5082V5.136ZM35.1759 18.192C34.2479 18.192 33.5039 17.944 32.9439 17.448C32.3839 16.952 32.1039 16.328 32.1039 15.576C32.1039 14.808 32.3839 14.176 32.9439 13.68C33.5039 13.168 34.2479 12.912 35.1759 12.912C36.0879 12.912 36.8239 13.168 37.3839 13.68C37.9439 14.176 38.2239 14.808 38.2239 15.576C38.2239 16.328 37.9439 16.952 37.3839 17.448C36.8239 17.944 36.0879 18.192 35.1759 18.192Z" fill="#9099A3"/>
</svg>
