<svg width="38" height="19" viewBox="0 0 38 19" fill="none" xmlns="http://www.w3.org/2000/svg">
<path d="M0.0258125 8.976C0.0258125 6.208 0.609813 4.032 1.77781 2.448C2.96181 0.863999 4.77781 0.0719991 7.22581 0.0719991C9.65781 0.0719991 11.4658 0.871999 12.6498 2.472C13.8338 4.056 14.4258 6.224 14.4258 8.976C14.4258 11.744 13.8338 13.928 12.6498 15.528C11.4658 17.112 9.65781 17.904 7.22581 17.904C4.77781 17.904 2.96181 17.112 1.77781 15.528C0.609813 13.928 0.0258125 11.744 0.0258125 8.976ZM9.16981 8.976C9.16981 7.696 9.04181 6.736 8.78581 6.096C8.52981 5.44 8.00981 5.112 7.22581 5.112C6.42581 5.112 5.89781 5.44 5.64181 6.096C5.38581 6.736 5.25781 7.696 5.25781 8.976C5.25781 10.272 5.38581 11.248 5.64181 11.904C5.89781 12.544 6.42581 12.864 7.22581 12.864C8.00981 12.864 8.52981 12.544 8.78581 11.904C9.04181 11.248 9.16981 10.272 9.16981 8.976ZM23.9084 5.784C23.8124 5.304 23.6684 4.952 23.4764 4.728C23.3004 4.504 23.0204 4.392 22.6364 4.392C22.0284 4.392 21.6204 4.704 21.4124 5.328C21.2204 5.936 21.1244 6.888 21.1244 8.184C21.4124 7.736 21.8284 7.384 22.3724 7.128C22.9164 6.872 23.5324 6.744 24.2204 6.744C25.7564 6.744 26.9804 7.216 27.8924 8.16C28.8204 9.104 29.2844 10.472 29.2844 12.264C29.2844 13.464 29.0284 14.512 28.5164 15.408C28.0204 16.288 27.3084 16.968 26.3804 17.448C25.4524 17.928 24.3564 18.168 23.0924 18.168C20.5804 18.168 18.8364 17.4 17.8604 15.864C16.8844 14.312 16.3964 12.144 16.3964 9.36C16.3964 7.184 16.6204 5.424 17.0684 4.08C17.5164 2.736 18.2204 1.744 19.1804 1.104C20.1564 0.463999 21.4204 0.144 22.9724 0.144C24.8764 0.144 26.3084 0.687999 27.2684 1.776C28.2444 2.864 28.7804 4.2 28.8764 5.784H23.9084ZM22.9004 10.824C22.4684 10.824 22.1244 10.944 21.8684 11.184C21.6124 11.424 21.4844 11.76 21.4844 12.192C21.4844 12.672 21.6044 13.032 21.8444 13.272C22.1004 13.496 22.4524 13.608 22.9004 13.608C23.3484 13.608 23.6924 13.496 23.9324 13.272C24.1884 13.032 24.3164 12.672 24.3164 12.192C24.3164 11.76 24.1884 11.424 23.9324 11.184C23.6764 10.944 23.3324 10.824 22.9004 10.824ZM34.1759 18.192C33.2479 18.192 32.5039 17.944 31.9439 17.448C31.3839 16.952 31.1039 16.328 31.1039 15.576C31.1039 14.808 31.3839 14.176 31.9439 13.68C32.5039 13.168 33.2479 12.912 34.1759 12.912C35.0879 12.912 35.8239 13.168 36.3839 13.68C36.9439 14.176 37.2239 14.808 37.2239 15.576C37.2239 16.328 36.9439 16.952 36.3839 17.448C35.8239 17.944 35.0879 18.192 34.1759 18.192Z" fill="#9099A3"/>
</svg>
