<svg width="192" height="30" viewBox="0 0 192 30" fill="none" xmlns="http://www.w3.org/2000/svg">
<path d="M191 24.0134H183.28C182.789 24.0134 182.371 23.6572 182.293 23.1727L180.116 9.67981C180.018 9.07183 180.487 8.52051 181.103 8.52051H191C191.552 8.52051 192 8.96822 192 9.52051V23.0134C192 23.5656 191.552 24.0134 191 24.0134Z" fill="white"/>
<path d="M183.72 23.4702L185.078 20.8868C185.21 20.636 185.23 20.3411 185.131 20.0753L182.204 12.1374C181.799 11.0401 180.162 11.4107 180.27 12.5753L180.99 20.3871C180.997 20.4574 181.01 20.5268 181.032 20.5942L181.881 23.3038C182.147 24.1529 183.306 24.2578 183.72 23.4702Z" fill="#2C3E50"/>
<path d="M186.708 18H186.06L184.122 15.828V18H183.582V13.716H184.122V15.792L186.012 13.716H186.624L184.764 15.798L186.708 18ZM188.749 14.724C189.145 14.724 189.463 14.862 189.703 15.138C189.947 15.414 190.069 15.83 190.069 16.386C190.069 16.934 189.947 17.35 189.703 17.634C189.463 17.918 189.143 18.06 188.743 18.06C188.495 18.06 188.289 18.014 188.125 17.922C187.965 17.826 187.839 17.716 187.747 17.592H187.711C187.719 17.66 187.727 17.746 187.735 17.85C187.743 17.954 187.747 18.044 187.747 18.12V19.44H187.219V14.784H187.651L187.723 15.222H187.747C187.843 15.082 187.969 14.964 188.125 14.868C188.281 14.772 188.489 14.724 188.749 14.724ZM188.653 15.168C188.325 15.168 188.093 15.26 187.957 15.444C187.825 15.628 187.755 15.908 187.747 16.284V16.386C187.747 16.782 187.811 17.088 187.939 17.304C188.071 17.516 188.313 17.622 188.665 17.622C188.861 17.622 189.021 17.568 189.145 17.46C189.273 17.352 189.367 17.206 189.427 17.022C189.491 16.834 189.523 16.62 189.523 16.38C189.523 16.012 189.451 15.718 189.307 15.498C189.167 15.278 188.949 15.168 188.653 15.168Z" fill="#2C3E50"/>
<path d="M172 5H178.874C179.293 5 179.668 5.261 179.813 5.65396L185.211 20.2918C185.247 20.3893 185.175 20.4928 185.071 20.4928H180.643H172C171.448 20.4928 171 20.0451 171 19.4928V6C171 5.44772 171.448 5 172 5Z" fill="#1A5CFF"/>
<path d="M174.716 10.716C175.276 10.716 175.684 10.826 175.94 11.046C176.196 11.266 176.324 11.576 176.324 11.976C176.324 12.212 176.27 12.434 176.162 12.642C176.058 12.846 175.88 13.012 175.628 13.14C175.38 13.268 175.042 13.332 174.614 13.332H174.122V15H173.582V10.716H174.716ZM174.668 11.178H174.122V12.87H174.554C174.962 12.87 175.266 12.804 175.466 12.672C175.666 12.54 175.766 12.316 175.766 12C175.766 11.724 175.678 11.518 175.502 11.382C175.326 11.246 175.048 11.178 174.668 11.178ZM176.639 11.784H177.203L177.899 13.614C177.959 13.774 178.013 13.928 178.061 14.076C178.109 14.22 178.145 14.358 178.169 14.49H178.193C178.217 14.39 178.255 14.26 178.307 14.1C178.359 13.936 178.413 13.772 178.469 13.608L179.123 11.784H179.693L178.307 15.444C178.195 15.748 178.049 15.99 177.869 16.17C177.693 16.35 177.449 16.44 177.137 16.44C177.041 16.44 176.957 16.434 176.885 16.422C176.813 16.414 176.751 16.404 176.699 16.392V15.972C176.743 15.98 176.795 15.988 176.855 15.996C176.919 16.004 176.985 16.008 177.053 16.008C177.237 16.008 177.385 15.956 177.497 15.852C177.613 15.748 177.703 15.61 177.767 15.438L177.935 15.012L176.639 11.784Z" fill="white"/>
</svg>
